<?xml version="1.0" standalone="no"?>
<!DOCTYPE svg PUBLIC "-//W3C//DTD SVG 20010904//EN"
 "http://www.w3.org/TR/2001/REC-SVG-20010904/DTD/svg10.dtd">
<svg version="1.0" xmlns="http://www.w3.org/2000/svg"
 width="385.000000pt" height="385.000000pt" viewBox="0 0 385.000000 385.000000"
 preserveAspectRatio="xMidYMid meet">
<metadata>
Created by potrace 1.14, written by Peter Selinger 2001-2017
</metadata>
<g transform="translate(0.000000,385.000000) scale(0.100000,-0.100000)"
fill="#000000" stroke="none">
<path d="M2965 3826 c-91 -27 -139 -54 -202 -110 -128 -115 -183 -259 -237
-610 -4 -21 -8 -48 -11 -60 -3 -12 -7 -32 -9 -46 -2 -14 -9 -52 -15 -85 -5
-33 -13 -81 -16 -107 -3 -26 -9 -49 -13 -52 -4 -2 -33 4 -66 14 -32 10 -75 21
-95 24 -20 3 -54 9 -76 13 -48 9 -352 10 -415 0 -316 -47 -565 -152 -814 -342
-279 -212 -483 -487 -589 -795 -20 -55 -50 -181 -68 -275 -20 -106 -18 -362 4
-465 59 -275 203 -506 424 -682 145 -116 284 -179 488 -224 122 -27 438 -27
565 0 14 3 39 8 55 12 148 28 376 125 525 221 175 114 377 298 481 438 24 33
46 62 49 65 15 14 90 145 127 220 36 75 98 241 108 288 2 9 8 37 13 62 19 81
32 182 36 275 4 65 6 86 21 170 3 17 8 46 11 65 2 19 7 42 9 50 2 8 7 31 10
50 3 19 10 58 15 85 5 28 11 64 14 80 2 17 7 41 10 55 3 14 7 39 10 55 2 17
30 174 61 350 31 176 58 331 60 345 3 32 17 118 30 180 2 14 7 41 11 60 3 19
13 80 23 135 19 113 20 214 0 282 -62 221 -290 332 -534 259z m-1125 -1741
c30 -3 57 -10 58 -15 2 -6 16 -10 31 -10 14 0 37 -8 50 -17 18 -12 22 -13 16
-2 -4 8 2 4 14 -8 12 -13 26 -23 31 -23 6 0 33 -16 60 -35 27 -19 54 -36 60
-37 20 -5 130 -118 130 -133 0 -8 4 -15 9 -15 4 0 19 -21 32 -47 13 -27 29
-55 35 -63 19 -26 46 -104 49 -140 2 -19 7 -53 12 -75 5 -22 8 -65 6 -95 -2
-30 -5 -80 -7 -110 -2 -30 -5 -56 -6 -57 -1 -2 -3 -6 -4 -10 -5 -30 -39 -102
-46 -98 -5 3 -16 -15 -25 -40 -10 -25 -24 -50 -31 -56 -8 -6 -23 -32 -34 -56
-11 -24 -23 -42 -28 -39 -9 5 -52 -37 -52 -52 0 -6 -15 -17 -95 -68 -52 -33
-109 -57 -132 -55 -13 0 -23 -4 -23 -10 0 -6 -7 -8 -16 -5 -8 3 -13 2 -10 -2
3 -4 -19 -9 -47 -9 -29 -1 -87 -4 -130 -7 -73 -6 -79 -5 -84 14 -5 19 -43 29
-43 11 0 -4 -12 -6 -26 -3 -17 3 -22 7 -13 12 11 7 -18 15 -121 35 -14 3 -26
9 -28 15 -2 5 -9 10 -16 10 -15 0 -141 91 -143 103 -1 5 -19 28 -40 51 -83 93
-108 126 -108 138 -1 22 -16 58 -25 58 -7 0 -27 53 -46 125 -4 17 -8 33 -9 38
-2 4 -3 16 -4 27 0 11 -5 20 -9 20 -5 0 -8 -13 -7 -30 1 -16 -2 -27 -7 -24 -5
3 -6 14 -3 25 4 10 2 19 -3 19 -5 0 -9 16 -9 35 0 19 4 32 9 29 5 -3 6 8 3 25
-3 18 -1 31 5 31 5 0 10 5 10 11 0 5 -5 7 -10 4 -33 -20 59 247 103 303 8 11
12 11 19 0 6 -9 8 -5 6 12 -2 16 2 24 10 22 6 -1 12 2 12 7 0 5 -6 12 -12 14
-8 3 -6 6 4 6 10 1 24 13 32 29 17 32 66 80 66 64 0 -6 -9 -16 -20 -22 -11 -6
-35 -42 -54 -79 -40 -81 -81 -143 -88 -135 -3 3 -9 -1 -14 -8 -4 -7 -4 -10 1
-6 4 4 14 3 21 -3 10 -8 16 -3 27 23 8 18 31 53 51 77 33 40 89 134 91 153 0
4 9 14 20 23 l20 15 -20 -7 c-21 -7 -21 -5 9 17 13 10 17 10 12 3 -11 -19 2
-16 31 7 14 11 35 20 45 20 14 0 5 -11 -31 -35 -28 -19 -55 -35 -61 -35 -5 0
-10 -4 -10 -10 0 -15 6 -13 57 23 27 19 56 37 66 40 10 4 15 11 12 17 -3 5 0
7 9 4 8 -3 27 1 43 10 16 9 21 15 13 16 -9 0 -20 -4 -25 -9 -6 -5 -19 -5 -30
-1 -14 6 -15 9 -5 9 9 1 32 9 51 19 36 18 36 18 32 -2 -4 -21 -4 -21 12 -1 11
14 29 20 66 21 28 1 55 6 61 12 10 10 85 9 188 -3z m597 -517 c-3 -7 -5 -2 -5
12 0 14 2 19 5 13 2 -7 2 -19 0 -25z m10 -300 c-3 -7 -5 -2 -5 12 0 14 2 19 5
13 2 -7 2 -19 0 -25z m-1403 -32 c3 -23 1 -35 -4 -30 -11 11 -20 60 -13 68 9
9 12 3 17 -38z m265 -425 c18 -16 20 -20 6 -13 -28 16 -65 49 -65 57 0 8 19
-6 59 -44z m101 -52 c0 -14 -17 -10 -23 5 -4 10 -1 13 9 9 7 -3 14 -9 14 -14z
m37 -15 c-3 -3 -12 -4 -19 -1 -8 3 -5 6 6 6 11 1 17 -2 13 -5z m94 -4 c10 0
19 -4 19 -9 0 -12 -52 -3 -65 11 -7 8 -5 9 8 4 10 -3 27 -6 38 -6z"/>
<path d="M1645 1892 c-84 -24 -144 -69 -191 -143 -37 -60 -55 -116 -58 -184
-5 -102 22 -173 152 -410 21 -38 58 -106 81 -150 24 -44 49 -87 55 -95 7 -8
18 -28 24 -44 7 -16 14 -27 16 -25 2 2 31 56 64 119 32 63 70 133 82 155 154
270 173 313 178 409 3 72 0 89 -26 153 -30 72 -38 84 -78 126 -81 85 -196 120
-299 89z m136 -235 c42 -28 59 -60 59 -111 0 -128 -162 -181 -215 -71 -30 64
-11 159 36 182 59 29 78 29 120 0z"/>
<path d="M1111 1744 c-6 -15 -10 -29 -7 -31 2 -2 7 5 11 16 3 12 11 21 16 21
5 0 9 5 9 10 0 19 -17 10 -29 -16z"/>
<path d="M1090 1661 c0 -6 4 -13 10 -16 6 -3 7 1 4 9 -7 18 -14 21 -14 7z"/>
<path d="M1071 1644 c0 -11 3 -14 6 -6 3 7 2 16 -1 19 -3 4 -6 -2 -5 -13z"/>
<path d="M1087 1623 c-4 -3 -7 -11 -7 -17 0 -6 5 -5 12 2 6 6 9 14 7 17 -3 3
-9 2 -12 -2z"/>
<path d="M1070 1548 c0 -19 2 -20 10 -8 13 19 13 30 0 30 -5 0 -10 -10 -10
-22z"/>
<path d="M1046 1525 c-3 -8 -1 -15 4 -15 6 0 10 7 10 15 0 8 -2 15 -4 15 -2 0
-6 -7 -10 -15z"/>
<path d="M1040 1475 c0 -14 5 -25 10 -25 6 0 10 4 10 9 0 5 3 16 6 25 4 11 1
16 -10 16 -10 0 -16 -9 -16 -25z"/>
<path d="M1016 1375 c4 -8 11 -15 16 -15 6 0 5 6 -2 15 -7 8 -14 15 -16 15 -2
0 -1 -7 2 -15z"/>
</g>
</svg>
